<?xml version="1.0" encoding="UTF-8"?>
<svg id="logo" xmlns="http://www.w3.org/2000/svg" version="1.1" viewBox="0 0 130 49">
  <!-- Generator: Adobe Illustrator 29.7.1, SVG Export Plug-In . SVG Version: 2.1.1 Build 8)  -->
  <defs>
    <style>
      .st0 {
        fill: #00142d;
      }

      .st1 {
        fill: #0078ff;
      }
    </style>
  </defs>
  <path id="path8137-3" class="st0" d="M7.2100493,39.9223061c-1.1087189-.0335922-2.0830493-.1847839-2.9229903-.4535675-.8063464-.2351837-1.4950981-.6047592-2.0662549-1.1087265-.5375687-.5375595-.9575425-1.2095108-1.2599216-2.0158501-.2687843-.8399506-.4031765-1.8814812-.4031765-3.1245995V.9657779L3.8334903.3610229v32.7577438c0,.8063469.0671928,1.4615059.2015784,1.9654732.1679935.4703636.4031765.856739.7055492,1.1591148.3023791.2687874.688755.4703751,1.1591272.6047668.5039673.1343842,1.0919251.251976,1.7638726.3527756l-.4535685,2.7214088h0Z"/>
  <g>
    <circle class="st1" cx="128.4313965" cy="1.4705811" r="1"/>
    <path class="st1" d="M129.3040161,8.8234863l-1.8530273.343811v14.755188c-.003418.0335693-.0195923.0626831-.0195923.0971069,0,.5522461.4476929,1,1,1,.5522461,0,1-.4477539,1-1,0-.034729-.0162964-.0641479-.0197754-.0979614l-.107605-15.0981445Z"/>
    <path class="st1" d="M124.1750488,11.3911743c-.583252-.6773682-1.2794189-1.1947632-2.0884399-1.5522461-.809021-.3762817-1.7027588-.5644531-2.6810913-.5644531-.9783936,0-1.8721313.1881714-2.6811523.5644531-.809021.3574829-1.5145264.8748779-2.1166382,1.5522461-.010498.0118408-.0177612.0274048-.0281982.0393677V.4901733l-1.8344116.3386841v16.3198853c0,.0181885.0088501.0452271.010376.0649414.0252686,1.0321045.1771851,1.9822388.4693604,2.8416138.3386841.9407349.7996216,1.7403564,1.3828735,2.3989258.6021118.6585083,1.3076172,1.1759033,2.1166382,1.5521851.809021.3574829,1.7027588.5361938,2.6811523.5361938.9783325,0,1.8720703-.1787109,2.6810913-.5361938.809021-.3762817,1.505188-.8936768,2.0884399-1.5521851.6020508-.6585693,1.0629883-1.4581909,1.3828125-2.3989258.3386841-.9407349.5080566-1.9849243.5080566-3.1326294s-.1693726-2.1918945-.5080566-3.1326294c-.3198242-.9407349-.7807617-1.7403564-1.3828125-2.3988647ZM122.8486328,21.2688599c-.8466797,1.0724487-1.9943848,1.6086426-3.4431152,1.6086426s-2.5964355-.5361938-3.4431152-1.6086426-1.2699585-2.5211792-1.2699585-4.3461914.4232788-3.2737427,1.2699585-4.3461914c.8466797-1.0912476,1.9943848-1.6369019,3.4431152-1.6369019s2.5964355.5456543,3.4431152,1.6369019c.8466187,1.0724487,1.2699585,2.5211792,1.2699585,4.3461914s-.4233398,3.2737427-1.2699585,4.3461914Z"/>
  </g>
  <path id="path8139-6" class="st0" d="M33.317567,26.4664249c0,2.0494633-.3023949,3.9141369-.9071846,5.5940189-.571125,1.6798897-1.3942394,3.1077957-2.4693432,4.2837181-1.0415287,1.1759071-2.2846375,2.0998421-3.7293243,2.771801-1.4446926.6383553-3.0405979.957531-4.787714.957531-1.7470398,0-3.3429489-.3191757-4.7877254-.957531-1.4446936-.6719589-2.7045889-1.5958939-3.7796869-2.771801-1.0415297-1.1759224-1.864686-2.6038284-2.469471-4.2837181-.5711241-1.679882-.8566856-3.5445557-.8566856-5.5940189,0-2.0494576.2855616-3.9141273.8566856-5.5940094.604785-1.6798897,1.4279413-3.1077919,2.469471-4.2837067,1.075098-1.2095156,2.3349934-2.1334543,3.7796869-2.7718134,1.4447765-.6719542,3.0406857-1.0079317,4.7877254-1.0079317,1.7470379,0,3.3429432.3359776,4.787714,1.0079317,1.4446869.6383591,2.6877956,1.5622978,3.7293243,2.7718134,1.0751038,1.1759148,1.8982182,2.603817,2.4693432,4.2837067.6047897,1.679882.9071846,3.5445518.9071846,5.5940094h0ZM29.8401862,26.4664249c0-3.2589741-.7559185-5.8459969-2.2677555-7.7610683-1.5119267-1.9486675-3.5614052-2.9230003-6.1484299-2.9230003-2.5870266,0-4.6365032.9743328-6.1484318,2.9230003-1.5118437,1.9150715-2.267765,4.5020943-2.267765,7.7610683,0,3.2589798.7559214,5.8460026,2.267765,7.7610683,1.5119286,1.9150658,3.5614052,2.8725967,6.1484318,2.8725967,2.5870247,0,4.6365032-.957531,6.1484299-2.8725967,1.511837-1.9150658,2.2677555-4.5020885,2.2677555-7.7610683h0Z"/>
  <path id="path8141-1" class="st0" d="M88.1523029,26.4664249c0,2.0494633-.3023911,3.9141369-.9071884,5.5940189-.5711288,1.6798897-1.3942413,3.1077957-2.4693375,4.2837181-1.0415344,1.1759071-2.2846451,2.0998421-3.729332,2.771801-1.4447708.6383553-3.0406723.957531-4.7877197.957531-1.7471237,0-3.3430328-.3191757-4.7877121-.957531-1.4446945-.6719589-2.7045975-1.5958939-3.7797012-2.771801-1.0415192-1.1759224-1.8646774-2.6038284-2.4694672-4.2837181-.5711288-1.679882-.8566971-3.5445557-.8566971-5.5940189,0-2.0494576.2855682-3.9141273.8566971-5.5940094.6047897-1.6798897,1.427948-3.1077919,2.4694672-4.2837067,1.0751038-1.2095156,2.3350067-2.1334543,3.7797012-2.7718134,1.4446793-.6719542,3.0405884-1.0079317,4.7877121-1.0079317,1.7470474,0,3.3429489.3359776,4.7877197,1.0079317,1.4446869.6383591,2.6877975,1.5622978,3.729332,2.7718134,1.0750961,1.1759148,1.8982086,2.603817,2.4693375,4.2837067.6047974,1.679882.9071884,3.5445518.9071884,5.5940094h0ZM84.674924,26.4664249c0-3.2589741-.7559204-5.8459969-2.2677689-7.7610683-1.5119171-1.9486675-3.5613937-2.9230003-6.1484299-2.9230003s-4.6365128.9743328-6.1484299,2.9230003c-1.5118408,1.9150715-2.2677689,4.5020943-2.2677689,7.7610683,0,3.2589798.755928,5.8460026,2.2677689,7.7610683,1.5119171,1.9150658,3.5613937,2.8725967,6.1484299,2.8725967s4.6365128-.957531,6.1484299-2.8725967c1.5118484-1.9150658,2.2677689-4.5020885,2.2677689-7.7610683Z"/>
  <path id="path8143-0" class="st0" d="M99.0315677,37.1504936c1.8814392,0,3.4269028-.3023796,4.6363831-.9071388,1.2431564-.6383514,1.8647385-1.696682,1.8647385-3.1749878,0-.7055435-.1176071-1.3102989-.3528061-1.8142662-.2015457-.5039673-.5542984-.9575348-1.0582733-1.3607044-.5039825-.4031773-1.1759644-.7895508-2.0159454-1.1591187-.8063278-.3695755-1.8142319-.8063469-3.0237198-1.3103142-.9743729-.4031696-1.8983078-.8063431-2.7717896-1.2095184-.873558-.4367714-1.6463089-.9239388-2.3182526-1.4615002-.671936-.5711632-1.2095261-1.2431183-1.6127625-2.0158634-.4031754-.7727451-.6047592-1.7134838-.6047592-2.822216,0-2.1166458.7895432-3.8301239,2.3686218-5.1404305,1.6127396-1.3103142,3.8133926-1.9654713,6.6019592-1.9654713,1.7807007,0,3.242218.1511936,4.3845596.4535789,1.1759033.302372,1.9990616.5711536,2.4694595.8063431l-.7559586,2.9229908c-.4031601-.201582-1.0919266-.4703636-2.0663071-.806344-.9407196-.3359804-2.3349991-.5039701-4.1828537-.5039701-.7391739,0-1.4447327.0839968-2.1166763.2519903-.6383514.1343851-1.2095184.3695679-1.713501.7055483-.5039749.3023796-.907135.7055531-1.2094879,1.2095203-.3024292.4703712-.4536438,1.0583305-.4536438,1.7638721,0,.7055492.1343842,1.3103065.4031525,1.8142738.2687759.5039749.6551514.9575462,1.1591263,1.3607159.5376358.3695831,1.1760025.722353,1.9150925,1.0583134.7727509.3359814,1.6463089.7055569,2.6206818,1.1087265,1.0079498.4031773,1.9654922.8231506,2.8726273,1.259922.9407196.4031754,1.7638397.9071426,2.469368,1.5119019.7055817.5711555,1.2767487,1.2767086,1.7134933,2.1166573.4367447.806345.6551132,1.8310738.6551132,3.0741863,0,2.351841-.8903122,4.1325188-2.6709213,5.3420296-1.7471313,1.2095146-4.1493683,1.8142738-7.2067184,1.8142738-2.2846756,0-4.0317535-.2015839-5.2412415-.6047554-1.2095718-.3695755-2.0159378-.6551552-2.4190979-.8567467l.8568115-2.9733887c.1007309.067234.3190994.1848259.6551056.3527718.3360138.1343918.7895813.3023834,1.3607101.5039711.5711288.1679878,1.2430725.3191795,2.0158234.4535789.8064041.1343803,1.7303696.2015686,2.7718887.2015686h0Z"/>
  <g id="path8145-6">
    <path class="st1" d="M49.1069336,37.9679565h-.0092773c-.5830078-.0039062-1.1210938-.3125-1.418457-.8134766l-12.6337891-21.3066406c-.4677734-.7885742-.2075195-1.8071289.5810547-2.2744141.7880859-.4677734,1.8066406-.2070312,2.2744141.5810547l11.2241211,18.9296875,11.3432617-18.6445312c.4760742-.7827148,1.4970703-1.0322266,2.2807617-.5551758.7832031.4760742,1.0317383,1.4975586.5551758,2.2807617l-12.7792969,21.0048828c-.3012695.4960938-.8388672.7978516-1.4179688.7978516Z"/>
  </g>
  <g id="path8147-3">
    <path class="st0" d="M43.4194336,48.4972534c-.2885742,0-.5805664-.0751953-.8466797-.2333984-.7880859-.4677734-1.0473633-1.4863281-.5791016-2.2744141l2.9130859-4.9023438c.4692383-.7880859,1.4873047-1.046875,2.2753906-.5791016s1.0473633,1.4863281.5791016,2.2744141l-2.9130859,4.9023438c-.3105469.5224609-.8623047.8125-1.4287109.8125Z"/>
  </g>
</svg>